<mxfile host="app.diagrams.net" modified="2022-01-02T23:56:51.688Z" agent="5.0 (Macintosh; Intel Mac OS X 10_15_7) AppleWebKit/537.36 (KHTML, like Gecko) Chrome/96.0.4664.110 Safari/537.36" etag="e9pz4baCKm6cSWdhLp-q" version="16.1.2" type="github">
  <diagram id="8MAGO7haqK6ek7z3_LDT" name="Page-1">
    <mxGraphModel dx="1426" dy="794" grid="1" gridSize="10" guides="1" tooltips="1" connect="1" arrows="1" fold="1" page="1" pageScale="1" pageWidth="1169" pageHeight="827" math="0" shadow="0">
      <root>
        <mxCell id="0" />
        <mxCell id="1" parent="0" />
        <mxCell id="12r6SfNr3O9a51ruKMN_-2" value="Workflow Activité" style="shape=table;childLayout=tableLayout;rowLines=0;columnLines=0;startSize=40;html=1;whiteSpace=wrap;collapsible=0;recursiveResize=0;expand=0;pointerEvents=0;fontStyle=1;align=center;" parent="1" vertex="1">
          <mxGeometry x="10" y="10" width="1240" height="670" as="geometry" />
        </mxCell>
        <mxCell id="12r6SfNr3O9a51ruKMN_-3" value="Employé.e" style="swimlane;horizontal=0;points=[[0,0.5],[1,0.5]];portConstraint=eastwest;startSize=40;html=1;whiteSpace=wrap;collapsible=0;recursiveResize=0;expand=0;pointerEvents=0;fontStyle=1" parent="12r6SfNr3O9a51ruKMN_-2" vertex="1">
          <mxGeometry y="40" width="1240" height="210" as="geometry" />
        </mxCell>
        <mxCell id="12r6SfNr3O9a51ruKMN_-4" value="Décalaration" style="swimlane;connectable=0;startSize=40;html=1;whiteSpace=wrap;collapsible=0;recursiveResize=0;expand=0;pointerEvents=0;" parent="12r6SfNr3O9a51ruKMN_-3" vertex="1">
          <mxGeometry x="40" width="590" height="210" as="geometry">
            <mxRectangle width="590" height="210" as="alternateBounds" />
          </mxGeometry>
        </mxCell>
        <mxCell id="12r6SfNr3O9a51ruKMN_-15" value="Saisie et Enregistrement" style="points=[[0.25,0,0],[0.5,0,0],[0.75,0,0],[1,0.25,0],[1,0.5,0],[1,0.75,0],[0.75,1,0],[0.5,1,0],[0.25,1,0],[0,0.75,0],[0,0.5,0],[0,0.25,0]];shape=mxgraph.bpmn.task;whiteSpace=wrap;rectStyle=rounded;size=10;taskMarker=abstract;isLoopStandard=1;" parent="12r6SfNr3O9a51ruKMN_-4" vertex="1">
          <mxGeometry x="110" y="100" width="120" height="80" as="geometry" />
        </mxCell>
        <mxCell id="12r6SfNr3O9a51ruKMN_-28" value="Soumission" style="points=[[0.25,0,0],[0.5,0,0],[0.75,0,0],[1,0.25,0],[1,0.5,0],[1,0.75,0],[0.75,1,0],[0.5,1,0],[0.25,1,0],[0,0.75,0],[0,0.5,0],[0,0.25,0]];shape=mxgraph.bpmn.task;whiteSpace=wrap;rectStyle=rounded;size=10;taskMarker=abstract;" parent="12r6SfNr3O9a51ruKMN_-4" vertex="1">
          <mxGeometry x="350" y="100" width="120" height="80" as="geometry" />
        </mxCell>
        <mxCell id="12r6SfNr3O9a51ruKMN_-5" value="Acceptation" style="swimlane;connectable=0;startSize=40;html=1;whiteSpace=wrap;collapsible=0;recursiveResize=0;expand=0;pointerEvents=0;" parent="12r6SfNr3O9a51ruKMN_-3" vertex="1">
          <mxGeometry x="630" width="180" height="210" as="geometry">
            <mxRectangle width="180" height="210" as="alternateBounds" />
          </mxGeometry>
        </mxCell>
        <mxCell id="12r6SfNr3O9a51ruKMN_-38" value="Correction&#xa;Employé.e" style="points=[[0.25,0,0],[0.5,0,0],[0.75,0,0],[1,0.25,0],[1,0.5,0],[1,0.75,0],[0.75,1,0],[0.5,1,0],[0.25,1,0],[0,0.75,0],[0,0.5,0],[0,0.25,0]];shape=mxgraph.bpmn.task;whiteSpace=wrap;rectStyle=rounded;size=10;taskMarker=abstract;fillColor=#ffe6cc;strokeColor=#d79b00;" parent="12r6SfNr3O9a51ruKMN_-5" vertex="1">
          <mxGeometry x="30" y="100" width="120" height="80" as="geometry" />
        </mxCell>
        <mxCell id="12r6SfNr3O9a51ruKMN_-6" value="Corrections" style="swimlane;connectable=0;startSize=40;html=1;whiteSpace=wrap;collapsible=0;recursiveResize=0;expand=0;pointerEvents=0;" parent="12r6SfNr3O9a51ruKMN_-3" vertex="1">
          <mxGeometry x="810" width="130" height="210" as="geometry">
            <mxRectangle width="130" height="210" as="alternateBounds" />
          </mxGeometry>
        </mxCell>
        <mxCell id="cFGWETprll8Gd9LwQhcS-9" style="swimlane;connectable=0;startSize=40;html=1;whiteSpace=wrap;collapsible=0;recursiveResize=0;expand=0;pointerEvents=0;" vertex="1" parent="12r6SfNr3O9a51ruKMN_-3">
          <mxGeometry x="940" width="300" height="210" as="geometry">
            <mxRectangle width="300" height="210" as="alternateBounds" />
          </mxGeometry>
        </mxCell>
        <mxCell id="12r6SfNr3O9a51ruKMN_-7" value="Système" style="swimlane;horizontal=0;points=[[0,0.5],[1,0.5]];portConstraint=eastwest;startSize=40;html=1;whiteSpace=wrap;collapsible=0;recursiveResize=0;expand=0;pointerEvents=0;" parent="12r6SfNr3O9a51ruKMN_-2" vertex="1">
          <mxGeometry y="250" width="1240" height="105" as="geometry" />
        </mxCell>
        <mxCell id="12r6SfNr3O9a51ruKMN_-8" value="" style="swimlane;connectable=0;startSize=0;html=1;whiteSpace=wrap;collapsible=0;recursiveResize=0;expand=0;pointerEvents=0;fillColor=#d5e8d4;strokeColor=#82b366;" parent="12r6SfNr3O9a51ruKMN_-7" vertex="1">
          <mxGeometry x="40" width="590" height="105" as="geometry">
            <mxRectangle width="590" height="105" as="alternateBounds" />
          </mxGeometry>
        </mxCell>
        <mxCell id="cFGWETprll8Gd9LwQhcS-16" value="enregistré" style="points=[[0.145,0.145,0],[0.5,0,0],[0.855,0.145,0],[1,0.5,0],[0.855,0.855,0],[0.5,1,0],[0.145,0.855,0],[0,0.5,0]];shape=mxgraph.bpmn.event;html=1;verticalLabelPosition=bottom;labelBackgroundColor=#ffffff;verticalAlign=top;align=center;perimeter=ellipsePerimeter;outlineConnect=0;aspect=fixed;outline=throwing;symbol=general;" vertex="1" parent="12r6SfNr3O9a51ruKMN_-8">
          <mxGeometry x="270" y="27.5" width="50" height="50" as="geometry" />
        </mxCell>
        <mxCell id="cFGWETprll8Gd9LwQhcS-15" value="Initialisé" style="points=[[0.145,0.145,0],[0.5,0,0],[0.855,0.145,0],[1,0.5,0],[0.855,0.855,0],[0.5,1,0],[0.145,0.855,0],[0,0.5,0]];shape=mxgraph.bpmn.event;html=1;verticalLabelPosition=bottom;labelBackgroundColor=#ffffff;verticalAlign=top;align=center;perimeter=ellipsePerimeter;outlineConnect=0;aspect=fixed;outline=standard;symbol=general;fillColor=#d5e8d4;strokeColor=#82b366;" vertex="1" parent="12r6SfNr3O9a51ruKMN_-8">
          <mxGeometry x="20" y="27.5" width="50" height="50" as="geometry" />
        </mxCell>
        <mxCell id="cFGWETprll8Gd9LwQhcS-18" value="Soumis" style="points=[[0.145,0.145,0],[0.5,0,0],[0.855,0.145,0],[1,0.5,0],[0.855,0.855,0],[0.5,1,0],[0.145,0.855,0],[0,0.5,0]];shape=mxgraph.bpmn.event;html=1;verticalLabelPosition=bottom;labelBackgroundColor=#ffffff;verticalAlign=top;align=center;perimeter=ellipsePerimeter;outlineConnect=0;aspect=fixed;outline=throwing;symbol=general;" vertex="1" parent="12r6SfNr3O9a51ruKMN_-8">
          <mxGeometry x="510" y="27.5" width="50" height="50" as="geometry" />
        </mxCell>
        <mxCell id="12r6SfNr3O9a51ruKMN_-9" value="" style="swimlane;connectable=0;startSize=0;html=1;whiteSpace=wrap;collapsible=0;recursiveResize=0;expand=0;pointerEvents=0;" parent="12r6SfNr3O9a51ruKMN_-7" vertex="1">
          <mxGeometry x="630" width="180" height="105" as="geometry">
            <mxRectangle width="180" height="105" as="alternateBounds" />
          </mxGeometry>
        </mxCell>
        <mxCell id="12r6SfNr3O9a51ruKMN_-10" value="" style="swimlane;connectable=0;startSize=0;html=1;whiteSpace=wrap;collapsible=0;recursiveResize=0;expand=0;pointerEvents=0;" parent="12r6SfNr3O9a51ruKMN_-7" vertex="1">
          <mxGeometry x="810" width="130" height="105" as="geometry">
            <mxRectangle width="130" height="105" as="alternateBounds" />
          </mxGeometry>
        </mxCell>
        <mxCell id="cFGWETprll8Gd9LwQhcS-19" value="Validé" style="points=[[0.145,0.145,0],[0.5,0,0],[0.855,0.145,0],[1,0.5,0],[0.855,0.855,0],[0.5,1,0],[0.145,0.855,0],[0,0.5,0]];shape=mxgraph.bpmn.event;html=1;verticalLabelPosition=bottom;labelBackgroundColor=#ffffff;verticalAlign=top;align=center;perimeter=ellipsePerimeter;outlineConnect=0;aspect=fixed;outline=throwing;symbol=general;" vertex="1" parent="12r6SfNr3O9a51ruKMN_-10">
          <mxGeometry x="64" y="27.5" width="50" height="50" as="geometry" />
        </mxCell>
        <mxCell id="cFGWETprll8Gd9LwQhcS-10" style="swimlane;connectable=0;startSize=0;html=1;whiteSpace=wrap;collapsible=0;recursiveResize=0;expand=0;pointerEvents=0;" vertex="1" parent="12r6SfNr3O9a51ruKMN_-7">
          <mxGeometry x="940" width="300" height="105" as="geometry">
            <mxRectangle width="300" height="105" as="alternateBounds" />
          </mxGeometry>
        </mxCell>
        <mxCell id="cFGWETprll8Gd9LwQhcS-17" value="Terminé" style="points=[[0.145,0.145,0],[0.5,0,0],[0.855,0.145,0],[1,0.5,0],[0.855,0.855,0],[0.5,1,0],[0.145,0.855,0],[0,0.5,0]];shape=mxgraph.bpmn.event;html=1;verticalLabelPosition=bottom;labelBackgroundColor=#ffffff;verticalAlign=top;align=center;perimeter=ellipsePerimeter;outlineConnect=0;aspect=fixed;outline=end;symbol=terminate2;fillColor=#f8cecc;strokeColor=#b85450;" vertex="1" parent="cFGWETprll8Gd9LwQhcS-10">
          <mxGeometry x="227" y="27.5" width="50" height="50" as="geometry" />
        </mxCell>
        <mxCell id="12r6SfNr3O9a51ruKMN_-11" value="Manager" style="swimlane;horizontal=0;points=[[0,0.5],[1,0.5]];portConstraint=eastwest;startSize=40;html=1;whiteSpace=wrap;collapsible=0;recursiveResize=0;expand=0;pointerEvents=0;" parent="12r6SfNr3O9a51ruKMN_-2" vertex="1">
          <mxGeometry y="355" width="1240" height="315" as="geometry" />
        </mxCell>
        <mxCell id="12r6SfNr3O9a51ruKMN_-12" value="" style="swimlane;connectable=0;startSize=0;html=1;whiteSpace=wrap;collapsible=0;recursiveResize=0;expand=0;pointerEvents=0;" parent="12r6SfNr3O9a51ruKMN_-11" vertex="1">
          <mxGeometry x="40" width="590" height="315" as="geometry">
            <mxRectangle width="590" height="315" as="alternateBounds" />
          </mxGeometry>
        </mxCell>
        <mxCell id="12r6SfNr3O9a51ruKMN_-13" value="" style="swimlane;connectable=0;startSize=0;html=1;whiteSpace=wrap;collapsible=0;recursiveResize=0;expand=0;pointerEvents=0;" parent="12r6SfNr3O9a51ruKMN_-11" vertex="1">
          <mxGeometry x="630" width="180" height="315" as="geometry">
            <mxRectangle width="180" height="315" as="alternateBounds" />
          </mxGeometry>
        </mxCell>
        <mxCell id="12r6SfNr3O9a51ruKMN_-32" value="Validation" style="points=[[0.25,0,0],[0.5,0,0],[0.75,0,0],[1,0.25,0],[1,0.5,0],[1,0.75,0],[0.75,1,0],[0.5,1,0],[0.25,1,0],[0,0.75,0],[0,0.5,0],[0,0.25,0]];shape=mxgraph.bpmn.task;whiteSpace=wrap;rectStyle=rounded;size=10;taskMarker=abstract;" parent="12r6SfNr3O9a51ruKMN_-13" vertex="1">
          <mxGeometry x="30" y="35" width="120" height="80" as="geometry" />
        </mxCell>
        <mxCell id="12r6SfNr3O9a51ruKMN_-33" value="Correction&#xa;demandée" style="points=[[0.25,0,0],[0.5,0,0],[0.75,0,0],[1,0.25,0],[1,0.5,0],[1,0.75,0],[0.75,1,0],[0.5,1,0],[0.25,1,0],[0,0.75,0],[0,0.5,0],[0,0.25,0]];shape=mxgraph.bpmn.task;whiteSpace=wrap;rectStyle=rounded;size=10;taskMarker=abstract;fillColor=#ffe6cc;strokeColor=#d79b00;" parent="12r6SfNr3O9a51ruKMN_-13" vertex="1">
          <mxGeometry x="30" y="145" width="120" height="80" as="geometry" />
        </mxCell>
        <mxCell id="12r6SfNr3O9a51ruKMN_-14" value="" style="swimlane;connectable=0;startSize=0;html=1;whiteSpace=wrap;collapsible=0;recursiveResize=0;expand=0;pointerEvents=0;" parent="12r6SfNr3O9a51ruKMN_-11" vertex="1">
          <mxGeometry x="810" width="130" height="315" as="geometry">
            <mxRectangle width="130" height="315" as="alternateBounds" />
          </mxGeometry>
        </mxCell>
        <mxCell id="cFGWETprll8Gd9LwQhcS-11" style="swimlane;connectable=0;startSize=0;html=1;whiteSpace=wrap;collapsible=0;recursiveResize=0;expand=0;pointerEvents=0;" vertex="1" parent="12r6SfNr3O9a51ruKMN_-11">
          <mxGeometry x="940" width="300" height="315" as="geometry">
            <mxRectangle width="300" height="315" as="alternateBounds" />
          </mxGeometry>
        </mxCell>
        <mxCell id="cFGWETprll8Gd9LwQhcS-1" value="Confirmation" style="points=[[0.25,0,0],[0.5,0,0],[0.75,0,0],[1,0.25,0],[1,0.5,0],[1,0.75,0],[0.75,1,0],[0.5,1,0],[0.25,1,0],[0,0.75,0],[0,0.5,0],[0,0.25,0]];shape=mxgraph.bpmn.task;whiteSpace=wrap;rectStyle=rounded;size=10;taskMarker=abstract;" vertex="1" parent="cFGWETprll8Gd9LwQhcS-11">
          <mxGeometry x="37" y="35" width="120" height="80" as="geometry" />
        </mxCell>
        <mxCell id="12r6SfNr3O9a51ruKMN_-31" style="edgeStyle=orthogonalEdgeStyle;rounded=0;orthogonalLoop=1;jettySize=auto;html=1;exitX=1;exitY=0.5;exitDx=0;exitDy=0;exitPerimeter=0;entryX=0;entryY=0.5;entryDx=0;entryDy=0;entryPerimeter=0;" parent="12r6SfNr3O9a51ruKMN_-2" source="12r6SfNr3O9a51ruKMN_-15" target="cFGWETprll8Gd9LwQhcS-16" edge="1">
          <mxGeometry relative="1" as="geometry" />
        </mxCell>
        <mxCell id="12r6SfNr3O9a51ruKMN_-30" style="edgeStyle=orthogonalEdgeStyle;rounded=0;orthogonalLoop=1;jettySize=auto;html=1;exitX=1;exitY=0.5;exitDx=0;exitDy=0;exitPerimeter=0;entryX=0;entryY=0.5;entryDx=0;entryDy=0;entryPerimeter=0;" parent="12r6SfNr3O9a51ruKMN_-2" source="cFGWETprll8Gd9LwQhcS-15" target="12r6SfNr3O9a51ruKMN_-15" edge="1">
          <mxGeometry relative="1" as="geometry" />
        </mxCell>
        <mxCell id="cFGWETprll8Gd9LwQhcS-21" value="" style="edgeStyle=elbowEdgeStyle;fontSize=12;html=1;endArrow=blockThin;endFill=1;rounded=0;entryX=0;entryY=0.5;entryDx=0;entryDy=0;entryPerimeter=0;exitX=1;exitY=0.5;exitDx=0;exitDy=0;exitPerimeter=0;" edge="1" parent="12r6SfNr3O9a51ruKMN_-2" source="12r6SfNr3O9a51ruKMN_-28" target="cFGWETprll8Gd9LwQhcS-18">
          <mxGeometry width="160" relative="1" as="geometry">
            <mxPoint x="430" y="696" as="sourcePoint" />
            <mxPoint x="300" y="730.9999999999998" as="targetPoint" />
            <Array as="points" />
          </mxGeometry>
        </mxCell>
        <mxCell id="cFGWETprll8Gd9LwQhcS-26" value="" style="edgeStyle=elbowEdgeStyle;fontSize=12;html=1;endArrow=blockThin;endFill=1;rounded=0;exitX=1;exitY=0.5;exitDx=0;exitDy=0;exitPerimeter=0;" edge="1" parent="12r6SfNr3O9a51ruKMN_-2" source="cFGWETprll8Gd9LwQhcS-16" target="12r6SfNr3O9a51ruKMN_-28">
          <mxGeometry width="160" relative="1" as="geometry">
            <mxPoint x="500" y="190" as="sourcePoint" />
            <mxPoint x="535" y="312.5" as="targetPoint" />
            <Array as="points" />
          </mxGeometry>
        </mxCell>
        <mxCell id="cFGWETprll8Gd9LwQhcS-3" value="" style="edgeStyle=elbowEdgeStyle;fontSize=12;html=1;endArrow=blockThin;endFill=1;rounded=0;entryX=0.5;entryY=0;entryDx=0;entryDy=0;entryPerimeter=0;exitX=0.5;exitY=0;exitDx=0;exitDy=0;exitPerimeter=0;" edge="1" parent="12r6SfNr3O9a51ruKMN_-2" source="12r6SfNr3O9a51ruKMN_-38" target="cFGWETprll8Gd9LwQhcS-15">
          <mxGeometry width="160" relative="1" as="geometry">
            <mxPoint x="640" y="425" as="sourcePoint" />
            <mxPoint x="770" y="230" as="targetPoint" />
            <Array as="points">
              <mxPoint x="490" y="110" />
            </Array>
          </mxGeometry>
        </mxCell>
        <mxCell id="cFGWETprll8Gd9LwQhcS-24" value="" style="edgeStyle=orthogonalEdgeStyle;rounded=0;orthogonalLoop=1;jettySize=auto;html=1;entryX=0;entryY=0.5;entryDx=0;entryDy=0;entryPerimeter=0;" edge="1" parent="12r6SfNr3O9a51ruKMN_-2" source="cFGWETprll8Gd9LwQhcS-18" target="12r6SfNr3O9a51ruKMN_-38">
          <mxGeometry relative="1" as="geometry">
            <Array as="points">
              <mxPoint x="575" y="180" />
            </Array>
          </mxGeometry>
        </mxCell>
        <mxCell id="cFGWETprll8Gd9LwQhcS-22" value="" style="edgeStyle=elbowEdgeStyle;fontSize=12;html=1;endArrow=blockThin;endFill=1;rounded=0;entryX=0;entryY=0.5;entryDx=0;entryDy=0;entryPerimeter=0;exitX=1;exitY=0.5;exitDx=0;exitDy=0;exitPerimeter=0;" edge="1" parent="12r6SfNr3O9a51ruKMN_-2" source="12r6SfNr3O9a51ruKMN_-32" target="cFGWETprll8Gd9LwQhcS-19">
          <mxGeometry width="160" relative="1" as="geometry">
            <mxPoint x="570" y="721" as="sourcePoint" />
            <mxPoint x="530" y="730.9999999999998" as="targetPoint" />
            <Array as="points" />
          </mxGeometry>
        </mxCell>
        <mxCell id="cFGWETprll8Gd9LwQhcS-25" value="" style="edgeStyle=orthogonalEdgeStyle;rounded=0;orthogonalLoop=1;jettySize=auto;html=1;entryX=1;entryY=0.5;entryDx=0;entryDy=0;entryPerimeter=0;exitX=0.5;exitY=0;exitDx=0;exitDy=0;exitPerimeter=0;" edge="1" parent="12r6SfNr3O9a51ruKMN_-2" source="cFGWETprll8Gd9LwQhcS-19" target="12r6SfNr3O9a51ruKMN_-38">
          <mxGeometry relative="1" as="geometry">
            <mxPoint x="859" y="270" as="sourcePoint" />
            <mxPoint x="325" y="756" as="targetPoint" />
            <Array as="points">
              <mxPoint x="899" y="180" />
            </Array>
          </mxGeometry>
        </mxCell>
        <mxCell id="cFGWETprll8Gd9LwQhcS-28" value="" style="edgeStyle=orthogonalEdgeStyle;rounded=0;orthogonalLoop=1;jettySize=auto;html=1;entryX=0;entryY=0.5;entryDx=0;entryDy=0;entryPerimeter=0;exitX=1;exitY=0.5;exitDx=0;exitDy=0;exitPerimeter=0;" edge="1" parent="12r6SfNr3O9a51ruKMN_-2" source="cFGWETprll8Gd9LwQhcS-18" target="12r6SfNr3O9a51ruKMN_-32">
          <mxGeometry relative="1" as="geometry">
            <mxPoint x="585" y="287.5" as="sourcePoint" />
            <mxPoint x="700" y="230" as="targetPoint" />
            <Array as="points">
              <mxPoint x="620" y="303" />
              <mxPoint x="620" y="430" />
            </Array>
          </mxGeometry>
        </mxCell>
        <mxCell id="cFGWETprll8Gd9LwQhcS-29" value="" style="edgeStyle=orthogonalEdgeStyle;rounded=0;orthogonalLoop=1;jettySize=auto;html=1;entryX=0;entryY=0.5;entryDx=0;entryDy=0;entryPerimeter=0;exitX=0.5;exitY=1;exitDx=0;exitDy=0;exitPerimeter=0;" edge="1" parent="12r6SfNr3O9a51ruKMN_-2" source="cFGWETprll8Gd9LwQhcS-18" target="12r6SfNr3O9a51ruKMN_-33">
          <mxGeometry relative="1" as="geometry">
            <mxPoint x="610" y="312.5" as="sourcePoint" />
            <mxPoint x="650" y="440" as="targetPoint" />
            <Array as="points">
              <mxPoint x="575" y="540" />
            </Array>
          </mxGeometry>
        </mxCell>
        <mxCell id="cFGWETprll8Gd9LwQhcS-30" value="" style="edgeStyle=orthogonalEdgeStyle;rounded=0;orthogonalLoop=1;jettySize=auto;html=1;entryX=1;entryY=0.5;entryDx=0;entryDy=0;entryPerimeter=0;exitX=0.5;exitY=1;exitDx=0;exitDy=0;exitPerimeter=0;" edge="1" parent="12r6SfNr3O9a51ruKMN_-2" source="cFGWETprll8Gd9LwQhcS-19" target="12r6SfNr3O9a51ruKMN_-33">
          <mxGeometry relative="1" as="geometry">
            <mxPoint x="889" y="287.5" as="sourcePoint" />
            <mxPoint x="770" y="190" as="targetPoint" />
            <Array as="points">
              <mxPoint x="899" y="540" />
            </Array>
          </mxGeometry>
        </mxCell>
        <mxCell id="cFGWETprll8Gd9LwQhcS-31" value="" style="edgeStyle=elbowEdgeStyle;fontSize=12;html=1;endArrow=blockThin;endFill=1;rounded=0;entryX=0.5;entryY=1;entryDx=0;entryDy=0;entryPerimeter=0;exitX=0.5;exitY=1;exitDx=0;exitDy=0;exitPerimeter=0;" edge="1" parent="12r6SfNr3O9a51ruKMN_-2" source="12r6SfNr3O9a51ruKMN_-33" target="cFGWETprll8Gd9LwQhcS-15">
          <mxGeometry width="160" relative="1" as="geometry">
            <mxPoint x="710.0000000000002" y="150" as="sourcePoint" />
            <mxPoint x="95" y="287.5" as="targetPoint" />
            <Array as="points">
              <mxPoint x="380" y="610" />
            </Array>
          </mxGeometry>
        </mxCell>
        <mxCell id="cFGWETprll8Gd9LwQhcS-32" value="" style="edgeStyle=elbowEdgeStyle;fontSize=12;html=1;endArrow=blockThin;endFill=1;rounded=0;exitX=1;exitY=0.5;exitDx=0;exitDy=0;exitPerimeter=0;entryX=0;entryY=0.5;entryDx=0;entryDy=0;entryPerimeter=0;" edge="1" parent="12r6SfNr3O9a51ruKMN_-2" source="cFGWETprll8Gd9LwQhcS-19" target="cFGWETprll8Gd9LwQhcS-1">
          <mxGeometry width="160" relative="1" as="geometry">
            <mxPoint x="370" y="312.5" as="sourcePoint" />
            <mxPoint x="400" y="190" as="targetPoint" />
            <Array as="points" />
          </mxGeometry>
        </mxCell>
        <mxCell id="cFGWETprll8Gd9LwQhcS-33" value="" style="edgeStyle=elbowEdgeStyle;fontSize=12;html=1;endArrow=blockThin;endFill=1;rounded=0;exitX=1;exitY=0.5;exitDx=0;exitDy=0;exitPerimeter=0;entryX=0;entryY=0.5;entryDx=0;entryDy=0;entryPerimeter=0;" edge="1" parent="12r6SfNr3O9a51ruKMN_-2" source="cFGWETprll8Gd9LwQhcS-1" target="cFGWETprll8Gd9LwQhcS-17">
          <mxGeometry width="160" relative="1" as="geometry">
            <mxPoint x="934" y="312.5" as="sourcePoint" />
            <mxPoint x="987" y="440" as="targetPoint" />
            <Array as="points" />
          </mxGeometry>
        </mxCell>
      </root>
    </mxGraphModel>
  </diagram>
</mxfile>
